<svg width="934" height="1358" viewBox="0 0 934 1358" fill="none" xmlns="http://www.w3.org/2000/svg">
<path fill-rule="evenodd" clip-rule="evenodd" d="M930.845 1341.74C934 1335.55 934 1327.44 934 1311.23V1043.31C911.179 1043.31 892.68 1024.8 892.68 1001.98C892.68 979.156 911.179 960.653 934 960.653L934 46.3201C934 30.108 934 22.0021 930.845 15.8088C928.07 10.36 923.642 5.93481 918.195 3.15356C912.004 0.00012207 903.898 0 887.687 0H46.3129C30.1023 0 21.9965 0.00012207 15.8043 3.15356C10.3583 5.93481 5.92969 10.36 3.15503 15.8088C-6.10352e-05 22.0021 0 30.108 0 46.3201L0 960.653C22.8205 960.653 41.3208 979.156 41.3208 1001.98C41.3208 1024.8 22.8205 1043.31 0 1043.31V1311.23C0 1327.44 -6.10352e-05 1335.55 3.15503 1341.74C5.92969 1347.19 10.3583 1351.62 15.8043 1354.39C21.9965 1357.55 30.1023 1357.55 46.3129 1357.55H887.687C903.898 1357.55 912.004 1357.55 918.195 1354.39C923.642 1351.62 928.07 1347.19 930.845 1341.74ZM811.106 978.587C798.189 978.587 787.717 989.061 787.717 1001.98C787.717 1014.9 798.189 1025.37 811.106 1025.37C824.024 1025.37 834.496 1014.9 834.496 1001.98C834.496 989.061 824.024 978.587 811.106 978.587ZM705.568 1001.98C705.568 989.061 716.039 978.587 728.957 978.587C741.874 978.587 752.346 989.061 752.346 1001.98C752.346 1014.9 741.874 1025.37 728.957 1025.37C716.039 1025.37 705.568 1014.9 705.568 1001.98ZM641.637 978.587C628.72 978.587 618.249 989.061 618.249 1001.98C618.249 1014.9 628.72 1025.37 641.637 1025.37C654.555 1025.37 665.026 1014.9 665.026 1001.98C665.026 989.061 654.555 978.587 641.637 978.587ZM530.93 1001.98C530.93 989.061 541.402 978.587 554.319 978.587C567.237 978.587 577.708 989.061 577.708 1001.98C577.708 1014.9 567.237 1025.37 554.319 1025.37C541.402 1025.37 530.93 1014.9 530.93 1001.98ZM467.001 978.587C454.083 978.587 443.611 989.061 443.611 1001.98C443.611 1014.9 454.083 1025.37 467.001 1025.37C479.917 1025.37 490.389 1014.9 490.389 1001.98C490.389 989.061 479.917 978.587 467.001 978.587ZM356.292 1001.98C356.292 989.061 366.764 978.587 379.681 978.587C392.599 978.587 403.07 989.061 403.07 1001.98C403.07 1014.9 392.599 1025.37 379.681 1025.37C366.764 1025.37 356.292 1014.9 356.292 1001.98ZM292.363 978.587C279.445 978.587 268.974 989.061 268.974 1001.98C268.974 1014.9 279.445 1025.37 292.363 1025.37C305.28 1025.37 315.752 1014.9 315.752 1001.98C315.752 989.061 305.28 978.587 292.363 978.587ZM181.655 1001.98C181.655 989.061 192.126 978.587 205.043 978.587C217.961 978.587 228.432 989.061 228.432 1001.98C228.432 1014.9 217.961 1025.37 205.043 1025.37C192.126 1025.37 181.655 1014.9 181.655 1001.98ZM117.725 978.587C104.807 978.587 94.3357 989.061 94.3357 1001.98C94.3357 1014.9 104.807 1025.37 117.725 1025.37C130.642 1025.37 141.114 1014.9 141.114 1001.98C141.114 989.061 130.642 978.587 117.725 978.587Z" fill="white"/>
</svg>
